#!OML:ASF X:\für Bonn\!DataBase\2005_08_11_Bastian_Final\c3d\Bastian.ASF
:FULLY-SPECIFIED
:DEGREES
373
root 1.6381 1.51058 25.0721 -800.738 -163.739 -720.897
lowerback 65.0339 3.03702 5.86118
upperback 24.7413 -11.4344 -0.387046
thorax 6.95366 -13.5475 -0.124259
lowerneck -15.664 -2.96831 -4.34163
upperneck 4.59324 -3.11043 1.66364
head 3.97613 -1.46639 0.967468
rclavicle -8.29926e-015 3.37934e-015
rhumerus -78.5766 35.2309 -106.45
rradius 86.613
rwrist -65.0414
rhand -28.3528 -27.9206
rfingers 7.12502
rthumb -1.72668 -57.8933
lclavicle -8.29926e-015 3.37934e-015
lhumerus 14.7387 -68.3755 19.5688
lradius 50.1391
lwrist 24.9942
lhand -12.1377 -11.5186
lfingers 7.12502
lthumb 13.9243 17.9952
rfemur -52.6234 -11.6204 10.7838
rtibia 88.5363
rfoot 16.0979 0.043199
rtoes 1.67697
lfemur -65.0016 10.2491 -31.2116
ltibia 107.817
lfoot 9.94293 -3.22672
ltoes -17.549
374
root 1.62885 1.50875 25.0725 -800.751 -163.865 -720.77
lowerback 64.5971 3.06678 5.76309
upperback 24.7938 -11.3573 -0.376333
thorax 6.99954 -13.4786 -0.112347
lowerneck -15.5228 -2.94502 -4.32038
upperneck 4.6957 -3.09419 1.6099
head 3.98407 -1.46611 0.949502
rclavicle 1.71949e-014 5.26779e-015
rhumerus -78.9148 35.816 -105.864
rradius 87.1844
rwrist -65.2208
rhand -27.2895 -27.79
rfingers 7.12502
rthumb -0.699648 -57.7686
lclavicle 1.71949e-014 5.26779e-015
lhumerus 12.3304 -68.585 22.1395
lradius 50.2283
lwrist 25.2041
lhand -12.6733 -11.5908
lfingers 7.12502
lthumb 13.4081 17.9577
rfemur -52.6082 -11.6498 10.8989
rtibia 88.5278
rfoot 16.0804 -0.0723293
rtoes 1.50525
lfemur -63.9973 9.83292 -31.1393
ltibia 105.516
lfoot 9.98057 -3.38316
ltoes -18.4414
375
root 1.61985 1.50566 25.0725 -800.757 -164.013 -720.663
lowerback 64.1476 3.10022 5.67157
upperback 24.8562 -11.2758 -0.387619
thorax 7.05333 -13.4048 -0.130824
lowerneck -15.3999 -2.91083 -4.24824
upperneck 4.83112 -3.07104 1.53219
head 4.00367 -1.46322 0.916178
rclavicle -1.61513e-014 -7.95139e-015
rhumerus -79.127 36.3469 -105.228
rradius 87.6701
rwrist -65.3331
rhand -26.1031 -27.6406
rfingers 7.12502
rthumb 0.446133 -57.6199
lclavicle -1.61513e-014 -7.95139e-015
lhumerus 9.85973 -68.7188 24.738
lradius 50.3528
lwrist 25.3893
lhand -13.1985 -11.6405
lfingers 7.12502
lthumb 12.9018 17.9407
rfemur -52.611 -11.6357 11.0408
rtibia 88.5148
rfoot 16.0969 -0.172556
rtoes 1.3305
lfemur -62.9937 9.449 -31.0301
ltibia 103.225
lfoot 10.0638 -3.51462
ltoes -19.0829
376
root 1.61112 1.50402 25.0721 -800.748 -164.185 -720.545
lowerback 63.658 3.13384 5.5929
upperback 24.9335 -11.1885 -0.379074
thorax 7.12978 -13.3302 -0.141103
lowerneck -15.2694 -2.88323 -4.17806
upperneck 4.90544 -3.05225 1.44219
head 4.00313 -1.4616 0.879535
rclavicle -2.73329e-015 1.75924e-014
rhumerus -79.289 36.9124 -104.566
rradius 88.145
rwrist -65.3719
rhand -24.9312 -27.4677
rfingers 7.12502
rthumb 1.578 -57.4416
lclavicle -2.73329e-015 1.75924e-014
lhumerus 7.33955 -68.7472 27.409
lradius 50.4961
lwrist 25.5699
lhand -13.773 -11.6518
lfingers 7.12502
lthumb 12.348 17.9636
rfemur -52.6265 -11.6319 11.2078
rtibia 88.4979
rfoot 16.1364 -0.289976
rtoes 1.30342
lfemur -62.0124 9.07989 -30.9046
ltibia 100.96
lfoot 10.1418 -3.64602
ltoes -19.9338
377
root 1.60358 1.50164 25.0732 -800.735 -164.361 -720.43
lowerback 63.1894 3.17412 5.48927
upperback 24.9947 -11.1056 -0.378616
thorax 7.18858 -13.2585 -0.143602
lowerneck -15.1293 -2.83019 -4.09568
upperneck 5.00999 -3.0031 1.34758
head 4.00938 -1.44582 0.841834
rclavicle -1.00386e-014 3.3197e-014
rhumerus -79.4283 37.4518 -103.895
rradius 88.5482
rwrist -65.277
rhand -23.6974 -27.2221
rfingers 7.12502
rthumb 2.76956 -57.1839
lclavicle -1.00386e-014 3.3197e-014
lhumerus 4.61351 -68.6678 30.2545
lradius 50.6283
lwrist 25.6461
lhand -14.3356 -11.6721
lfingers 7.12502
lthumb 11.8055 17.9751
rfemur -52.6432 -11.6208 11.3941
rtibia 88.469
rfoot 16.1814 -0.403727
rtoes 1.09351
lfemur -61.0502 8.73022 -30.7579
ltibia 98.7314
lfoot 10.2367 -3.72992
ltoes -20.5426
378
root 1.59547 1.50051 25.074 -800.706 -164.538 -720.323
lowerback 62.6983 3.21287 5.35475
upperback 25.0562 -11.0411 -0.39032
thorax 7.24848 -13.1969 -0.14074
lowerneck -15.0284 -2.76773 -4.00132
upperneck 5.13474 -2.94044 1.24456
head 4.02746 -1.42337 0.80014
rclavicle -4.4975e-014 -5.86415e-015
rhumerus -79.5271 38.0215 -103.212
rradius 88.8748
rwrist -64.9853
rhand -22.4398 -26.9605
rfingers 7.12502
rthumb 3.98409 -56.903
lclavicle -4.4975e-014 -5.86415e-015
lhumerus 1.82615 -68.5312 33.1453
lradius 50.7651
lwrist 25.7245
lhand -14.9565 -11.6421
lfingers 7.12502
lthumb 11.2067 18.0386
rfemur -52.6549 -11.5943 11.5751
rtibia 88.4366
rfoot 16.2138 -0.536267
rtoes 1.16238
lfemur -60.0984 8.40894 -30.6188
ltibia 96.5292
lfoot 10.3152 -3.8238
ltoes -21.0696
379
root 1.58797 1.49883 25.0746 -800.686 -164.759 -720.203
lowerback 62.2153 3.26093 5.24018
upperback 25.1173 -10.9619 -0.369954
thorax 7.31649 -13.1348 -0.118353
lowerneck -14.9427 -2.70465 -3.89217
upperneck 5.24004 -2.87404 1.10829
head 4.0412 -1.39978 0.746079
rclavicle -1.92076e-014 5.86415e-015
rhumerus -79.5299 38.5242 -102.448
rradius 89.0984
rwrist -64.3737
rhand -21.0986 -26.6544
rfingers 7.12502
rthumb 5.27919 -56.5686
lclavicle -1.92076e-014 5.86415e-015
lhumerus -0.9179 -68.278 36.0121
lradius 50.913
lwrist 25.7892
lhand -15.5778 -11.6518
lfingers 7.12502
lthumb 10.6075 18.0605
rfemur -52.6685 -11.5688 11.8139
rtibia 88.4
rfoot 16.2843 -0.660176
rtoes 1.09345
lfemur -59.1365 8.09212 -30.4247
ltibia 94.3377
lfoot 10.3782 -3.87453
ltoes -21.5477
380
root 1.57994 1.49696 25.0714 -800.666 -164.95 -720.087
lowerback 61.7361 3.29613 5.09181
upperback 25.1639 -10.9054 -0.376451
thorax 7.36513 -13.0792 -0.0982059
lowerneck -14.8245 -2.62534 -3.77625
upperneck 5.36804 -2.79015 0.975897
head 4.05656 -1.36803 0.693669
rclavicle 5.78712e-014 -1.81888e-014
rhumerus -79.4963 38.9933 -101.703
rradius 89.2515
rwrist -63.5232
rhand -19.7501 -26.2444
rfingers 7.12502
rthumb 6.58109 -56.1221
lclavicle 5.78712e-014 -1.81888e-014
lhumerus -3.75591 -67.9289 38.9474
lradius 51.0681
lwrist 25.8421
lhand -16.1696 -11.6808
lfingers 7.12502
lthumb 10.0365 18.0599
rfemur -52.7032 -11.5535 12.0182
rtibia 88.3909
rfoot 16.3331 -0.780022
rtoes 1.15554
lfemur -58.1607 7.78993 -30.2703
ltibia 92.1503
lfoot 10.3899 -3.91757
ltoes -22.0654
381
root 1.57216 1.49567 25.0686 -800.632 -165.198 -719.977
lowerback 61.2205 3.32674 4.99215
upperback 25.2273 -10.8273 -0.384897
thorax 7.43292 -13.007 -0.113057
lowerneck -14.6845 -2.54417 -3.60374
upperneck 5.44375 -2.71281 0.833959
head 4.05173 -1.33783 0.62931
rclavicle 4.70374e-014 3.05134e-014
rhumerus -79.4358 39.4241 -100.984
rradius 89.4339
rwrist -62.3477
rhand -18.4834 -25.8452
rfingers 7.12502
rthumb 7.80383 -55.6812
lclavicle 4.70374e-014 3.05134e-014
lhumerus -6.39614 -67.5047 41.6999
lradius 51.1654
lwrist 25.8066
lhand -16.7863 -11.7469
lfingers 7.12502
lthumb 9.44153 18.0216
rfemur -52.7359 -11.4955 12.2857
rtibia 88.3775
rfoot 16.4137 -0.906998
rtoes 1.12274
lfemur -57.1972 7.52893 -30.0753
ltibia 89.9731
lfoot 10.3427 -3.92455
ltoes -22.63
382
root 1.56471 1.495 25.0641 -800.597 -165.393 -719.881
lowerback 60.7064 3.39342 4.8124
upperback 25.2859 -10.752 -0.370139
thorax 7.50638 -12.9502 -0.0686973
lowerneck -14.5941 -2.46515 -3.46563
upperneck 5.58431 -2.6267 0.664008
head 4.0749 -1.30607 0.561512
rclavicle 8.00108e-014 1.81888e-014
rhumerus -79.3486 39.8977 -100.233
rradius 89.6716
rwrist -60.8458
rhand -17.249 -25.3791
rfingers 7.12502
rthumb 8.99506 -55.1673
lclavicle 8.00108e-014 1.81888e-014
lhumerus -8.9395 -66.9907 44.3607
lradius 51.2944
lwrist 25.8199
lhand -17.4042 -11.8021
lfingers 7.12502
lthumb 8.84529 17.9925
rfemur -52.7825 -11.4603 12.4941
rtibia 88.3829
rfoot 16.4891 -0.995751
rtoes 1.54452
lfemur -56.2164 7.29578 -29.9754
ltibia 87.8038
lfoot 10.1887 -3.95283
ltoes -23.9169
383
root 1.55711 1.49413 25.0593 -800.567 -165.641 -719.77
lowerback 60.1642 3.42791 4.70358
upperback 25.3585 -10.6722 -0.374012
thorax 7.59213 -12.8791 -0.079543
lowerneck -14.421 -2.38188 -3.26329
upperneck 5.66946 -2.54979 0.492929
head 4.06741 -1.27711 0.483541
rclavicle -2.42766e-014 -1.14301e-014
rhumerus -79.1761 40.2955 -99.5181
rradius 89.9035
rwrist -59.0146
rhand -16.0184 -24.8834
rfingers 7.12502
rthumb 10.1824 -54.617
lclavicle -2.42766e-014 -1.14301e-014
lhumerus -11.3356 -66.4023 46.8651
lradius 51.3979
lwrist 25.7367
lhand -18.0036 -11.8891
lfingers 7.12502
lthumb 8.26691 17.9292
rfemur -52.8092 -11.3997 12.7612
rtibia 88.3764
rfoot 16.5583 -1.10367
rtoes 1.58226
lfemur -55.243 7.09803 -29.8363
ltibia 85.646
lfoot 10.0102 -4.00962
ltoes -25.349
384
root 1.55006 1.49404 25.0525 -800.544 -165.878 -719.651
lowerback 59.6137 3.46241 4.59072
upperback 25.4366 -10.594 -0.375049
thorax 7.68869 -12.8099 -0.0875273
lowerneck -14.2522 -2.30556 -3.08045
upperneck 5.73965 -2.47774 0.332346
head 4.05668 -1.24971 0.411551
rclavicle -2.80783e-015 -2.79292e-014
rhumerus -78.9771 40.6675 -98.826
rradius 90.1616
rwrist -56.8235
rhand -14.8226 -24.2694
rfingers 7.12502
rthumb 11.3359 -53.9431
lclavicle -2.80783e-015 -2.79292e-014
lhumerus -13.5142 -65.7802 49.157
lradius 51.467
lwrist 25.6438
lhand -18.5598 -12.0198
lfingers 7.12502
lthumb 7.73002 17.8189
rfemur -52.8347 -11.3286 13.0138
rtibia 88.3759
rfoot 16.6267 -1.24711
rtoes 1.7553
lfemur -54.247 6.91856 -29.7157
ltibia 83.4993
lfoot 9.80837 -3.98073
ltoes -26.221
385
root 1.54251 1.49405 25.0463 -800.493 -166.122 -719.543
lowerback 59.0384 3.49135 4.47552
upperback 25.4961 -10.5003 -0.371839
thorax 7.76563 -12.7236 -0.0898056
lowerneck -14.0418 -2.25874 -2.9617
upperneck 5.82208 -2.43611 0.189986
head 4.04478 -1.2379 0.35338
rclavicle -1.04362e-014 -2.45499e-014
rhumerus -78.7504 41.03 -98.1426
rradius 90.4646
rwrist -54.3601
rhand -13.6757 -23.6206
rfingers 7.12502
rthumb 12.4418 -53.2303
lclavicle -1.04362e-014 -2.45499e-014
lhumerus -15.6203 -65.0939 51.3824
lradius 51.5551
lwrist 25.5328
lhand -19.1501 -12.1513
lfingers 7.12502
lthumb 7.1603 17.7076
rfemur -52.8821 -11.2595 13.2718
rtibia 88.3728
rfoot 16.7044 -1.40636
rtoes 2.10935
lfemur -53.2646 6.73265 -29.5882
ltibia 81.3526
lfoot 9.68415 -3.85386
ltoes -26.8679
